<svg width="260" height="380" viewBox="0 0 26 38" fill="none" xmlns="http://www.w3.org/2000/svg">
<path d="M1 37V1H25V37H1Z" stroke="current"/>
<path d="M4.78949 10V4H8.57896V10H4.78949Z" stroke="current"/>
<path d="M11.1053 10V4H14.8948V10H11.1053Z" stroke="current"/>
<path d="M17.4211 10V4H21.2106V10H17.4211Z" stroke="current"/>
<path d="M4.78949 19V13H8.57896V19H4.78949Z" stroke="current"/>
<path d="M11.1053 19V13H14.8948V19H11.1053Z" stroke="current"/>
<path d="M9.8421 37V31H16.1579V37H9.8421Z" stroke="current"/>
<path d="M17.4211 19V13H21.2106V19H17.4211Z" stroke="current"/>
<path d="M4.78949 26V22H8.57896V26H4.78949Z" stroke="current"/>
<path d="M11.1053 26V22H14.8948V26H11.1053Z" stroke="current"/>
<path d="M17.4211 26V22H21.2106V26H17.4211Z" stroke="current"/>
</svg>
