<svg xmlns="http://www.w3.org/2000/svg" viewBox="0 0 69.8 78.81">
    <defs>
        <style>
            .cls-1 {
                fill: currentColor;
            }
        </style>
    </defs>
    <g id="레이어_2" data-name="레이어 2">
        <g id="레이어_1-2" data-name="레이어 1"><path
            class="cls-1"
            d="M13.82,0V49.63H0V69.86a9,9,0,0,0,8.94,9H53.3a16.52,16.52,0,0,0,16.5-16.5V0ZM3,69.86V52.63H13.82v18.3a4.89,4.89,0,0,1-4.88,4.88A6,6,0,0,1,3,69.86Zm63.8-7.55a13.52,13.52,0,0,1-13.5,13.5H15.12a7.85,7.85,0,0,0,1.7-4.88V3h50Z"/><rect class="cls-1" x="24.96" y="26.57" width="35.04" height="1.5"/><rect class="cls-1" x="24.96" y="31.6" width="35.04" height="1.5"/><path
            class="cls-1"
            d="M24.51,11.58H25.7l3.88,6.64,1.11,2.1h.07c-.07-1-.16-2.14-.16-3.2V11.58h1.11V21.83h-1.2l-3.86-6.64-1.12-2.1h-.07c.06,1,.14,2.06.14,3.12v5.62H24.51Z"/><path
            class="cls-1"
            d="M34.56,11.58H40.4v1H35.73v3.37h3.93v1H35.73v3.94h4.83v1h-6Z"/><path
            class="cls-1"
            d="M41.69,11.58h1.19L44,17.28c.21,1.09.42,2.2.63,3.32h.06c.24-1.12.49-2.23.74-3.32l1.46-5.7H48l1.47,5.7c.25,1.08.5,2.2.75,3.32h.07c.2-1.12.4-2.23.61-3.32L52,11.58h1.12L51,21.83H49.59L48,15.44c-.17-.79-.34-1.52-.5-2.32h-.07c-.16.8-.36,1.53-.52,2.32l-1.6,6.39H43.9Z"/><path
            class="cls-1"
            d="M54.08,20.49l.7-.8A4,4,0,0,0,57.65,21c1.4,0,2.25-.71,2.25-1.76s-.77-1.46-1.75-1.89l-1.48-.66a2.88,2.88,0,0,1-2.09-2.61c0-1.55,1.35-2.67,3.17-2.67a4.05,4.05,0,0,1,3,1.26l-.61.74a3.33,3.33,0,0,0-2.37-1c-1.19,0-2,.6-2,1.57s.92,1.44,1.71,1.78L59,16.4a2.88,2.88,0,0,1,2.13,2.74c0,1.61-1.33,2.87-3.44,2.87A4.77,4.77,0,0,1,54.08,20.49Z"/></g>
    </g>
</svg>